<svg xmlns="http://www.w3.org/2000/svg" xmlns:v="https://svgstorm.com"
viewBox = "0 0 500 500"
width="500"
height="500">
<g fill="None" fill-opacity="0.0" stroke="#000000" stroke-opacity="0.00" stroke-width="0.3"><path d="
M 0.00 500.00 
L 500.00 500.00
L 500.00 0.00
L 0.00 0.00
L 0.00 500.00
M 163.00 236.00 
C 163.95 228.87 163.49 220.18 163.00 213.00
C 162.86 211.00 161.41 209.23 162.00 207.00
C 173.61 215.33 165.69 227.70 166.00 240.00 C 166.31 252.30 165.62 265.79 169.00 278.00
C 162.67 278.00 156.33 278.00 150.00 278.00
C 148.01 269.90 158.39 273.96 163.00 273.00
C 162.84 260.33 156.40 247.36 163.00 236.00
M 444.00 210.00 
C 444.80 237.89 416.41 259.44 423.00 287.00
C 435.80 281.40 433.61 258.71 451.00 257.00
C 451.92 269.12 433.97 269.71 435.00 281.00
C 446.58 275.47 458.57 263.94 461.00 251.00
C 464.54 252.36 462.50 256.48 462.00 259.00
C 466.03 256.44 469.55 249.49 475.00 253.00
C 464.79 257.14 459.62 269.02 455.00 278.00
C 449.97 275.79 457.10 269.78 454.00 267.00
C 449.24 273.82 442.02 286.50 432.00 283.00
C 424.37 296.99 414.53 283.97 418.00 274.00
C 412.09 283.29 406.93 292.97 399.00 301.00
C 394.36 301.23 396.62 296.81 395.00 295.00
C 392.38 301.59 377.41 313.68 379.00 299.00
C 374.27 303.94 365.88 319.51 359.00 312.00
C 355.22 314.73 355.42 319.33 349.97 319.97 C 344.52 320.62 347.26 311.56 346.00 309.00
C 342.73 314.86 339.21 327.86 331.00 326.00
C 333.32 319.11 334.24 307.91 341.00 305.00
C 340.52 310.80 335.63 315.18 335.00 321.00
C 341.55 315.45 343.14 306.27 349.00 300.00
C 353.99 304.25 347.44 311.27 349.00 317.00
C 361.05 312.97 363.80 299.10 368.00 289.00
C 374.32 293.39 361.70 303.37 363.00 311.00
C 371.11 306.07 378.96 298.85 381.32 289.32 C 383.69 279.79 387.72 268.69 391.77 259.77 C 395.82 250.86 398.15 238.70 406.00 234.00
C 396.56 256.17 384.52 278.68 382.00 303.00
C 388.71 301.58 393.65 292.24 398.25 288.25 C 402.85 284.25 408.06 271.98 413.00 278.00
C 420.98 267.93 422.15 254.23 426.93 242.93 C 431.70 231.62 433.37 216.15 444.00 210.00
M 146.00 238.00 
C 137.91 237.24 144.09 228.70 142.00 222.00 C 139.91 215.30 146.01 208.54 146.00 218.00 C 145.98 227.46 146.01 229.24 146.00 238.00
M 257.00 262.00 
C 256.67 256.59 257.43 243.65 257.00 239.00 C 256.57 234.35 256.50 218.43 260.08 220.94 C 263.67 223.44 260.35 238.35 261.00 243.00 C 261.65 247.65 263.27 261.75 257.00 262.00
M 341.00 278.00 
C 335.00 278.00 329.00 278.00 323.00 278.00
C 321.11 268.65 336.63 277.11 336.00 268.00 C 335.37 258.89 336.30 251.61 336.00 243.00 C 335.70 234.39 336.65 227.79 334.00 220.00
C 342.52 225.23 338.76 237.22 339.00 247.00 C 339.24 256.78 340.68 268.06 341.00 278.00
M 280.00 221.00 
C 278.50 236.07 282.00 256.47 280.00 271.00 C 278.00 285.53 249.85 281.61 247.00 271.00
C 252.47 274.38 259.00 274.13 265.02 273.02 C 271.04 271.92 275.78 268.63 276.00 262.00 C 276.21 255.37 275.30 246.46 276.00 240.00 C 276.70 233.54 272.69 221.76 280.00 221.00
M 207.00 254.00 
C 200.19 253.08 193.82 251.01 186.00 252.00
C 186.52 254.32 186.66 268.42 182.77 265.21 C 178.88 262.01 184.09 252.12 182.00 248.00
C 188.67 248.00 195.33 248.00 202.00 248.00
C 201.27 239.35 203.80 229.84 200.00 222.00
C 209.52 227.38 207.70 243.75 207.00 254.00
M 241.00 225.00 
C 242.55 229.46 239.84 235.40 241.00 240.00
C 235.72 239.47 228.78 240.60 225.00 237.00
C 222.99 236.61 221.60 233.61 221.00 232.00
C 220.05 229.45 219.68 226.88 220.00 224.00
C 222.35 223.24 223.27 225.25 224.00 227.00
C 224.77 228.92 225.73 233.94 226.00 236.00
C 228.11 232.46 233.34 234.56 237.00 234.00
C 237.00 231.00 237.00 228.00 237.00 225.00
C 237.24 224.06 236.81 222.95 237.00 222.00
C 238.77 221.79 240.37 223.54 241.00 225.00
M 380.00 254.00 
C 373.19 253.08 366.82 251.01 359.00 252.00
C 359.52 254.32 359.66 268.42 355.77 265.21 C 351.88 262.01 357.09 252.12 355.00 248.00
C 361.67 248.00 368.33 248.00 375.00 248.00
C 374.69 239.65 375.83 230.97 374.00 223.00
C 385.31 228.57 378.55 243.67 380.00 254.00
M 186.00 242.00 
C 181.04 243.17 179.36 227.23 182.78 224.78 C 186.20 222.32 186.90 238.76 186.00 242.00
M 359.00 242.00 
C 353.96 244.02 352.42 227.23 355.78 224.78 C 359.14 222.32 359.95 238.76 359.00 242.00
M 299.00 228.00 
C 301.63 230.46 300.08 237.94 300.00 242.00 C 299.92 246.06 300.73 253.46 301.00 257.00
C 301.45 257.63 304.34 256.52 305.00 257.00
C 304.70 264.27 299.25 270.15 301.00 278.00
C 294.13 281.83 294.38 294.44 291.00 302.00
C 295.97 293.09 304.30 283.98 304.00 273.00
C 310.63 273.54 311.99 264.55 316.00 261.00
C 314.78 257.19 315.54 248.98 316.00 245.00 C 316.46 241.02 313.85 231.17 316.00 228.00
C 317.02 226.50 317.97 227.02 319.00 228.00
C 320.87 229.78 320.75 239.24 320.00 242.00 C 319.25 244.76 321.62 254.93 322.00 253.00
C 328.56 243.73 330.02 252.40 327.07 259.07 C 324.13 265.75 320.46 270.42 321.00 278.00
C 313.65 279.77 312.50 290.11 307.00 295.00
C 314.09 294.58 320.75 293.15 326.00 288.00
C 329.28 285.88 332.36 283.16 336.00 282.00
C 332.70 286.00 328.01 288.74 324.00 292.00
C 323.04 293.38 322.00 293.84 321.00 295.00
C 331.65 301.77 326.36 317.40 322.08 327.08 C 317.79 336.75 312.23 344.83 305.70 353.70 C 299.16 362.56 290.89 366.22 282.92 373.92 C 274.94 381.62 257.74 379.11 258.00 366.00 C 258.27 352.89 263.32 345.52 271.25 336.25 C 279.17 326.98 280.36 318.74 285.00 308.00
C 282.50 307.02 281.55 304.54 282.00 302.00
C 287.42 308.60 288.27 298.81 289.93 293.93 C 291.58 289.04 294.14 282.29 294.00 278.00
C 290.84 278.74 287.20 277.44 284.00 278.00
C 281.93 270.23 291.56 273.76 296.00 273.00
C 297.00 266.08 294.66 257.79 296.00 251.00 C 297.34 244.21 293.43 235.28 296.00 229.00
C 296.74 227.18 297.18 226.30 299.00 228.00
M 210.00 272.00 
C 217.59 273.59 228.60 276.29 235.08 270.08 C 241.56 263.87 236.79 252.08 235.00 245.00
C 244.71 248.23 238.41 258.62 242.32 265.68 C 246.24 272.73 238.03 279.64 230.78 279.78 C 223.53 279.92 212.88 279.95 210.00 272.00
M 222.00 255.00 
C 218.70 252.63 213.94 250.28 213.00 246.00
C 216.57 248.25 221.57 250.26 222.00 255.00
M 148.00 278.00 
C 141.67 278.00 135.33 278.00 129.00 278.00
C 127.01 269.90 137.39 273.96 142.00 273.00
C 143.28 264.80 139.41 252.77 144.00 247.00
C 147.59 256.40 144.65 268.39 148.00 278.00
M 205.00 257.00 
C 209.75 263.85 205.65 277.48 196.92 278.92 C 188.20 280.36 175.88 280.72 172.00 271.00
C 181.27 275.82 197.20 275.32 201.00 264.00
C 201.22 263.01 201.25 251.60 205.00 257.00
M 345.00 271.00 
C 356.22 277.98 377.71 272.70 374.00 256.00
C 385.83 256.27 379.90 276.08 370.97 277.97 C 362.04 279.86 348.52 281.99 345.00 271.00
M 220.00 265.00 
C 217.37 253.43 229.80 264.14 220.00 265.00
M 377.00 277.00 
C 378.21 278.21 375.94 281.27 374.32 279.66 C 372.70 278.05 375.88 275.88 377.00 277.00 Z"/>
</g>
<g fill="None" fill-opacity="0.0" stroke="#A585ED" stroke-opacity="0.82" stroke-width="0.3"><path d="
M 163.00 213.00 
C 164.26 219.83 164.75 229.25 163.00 236.00
C 156.40 247.36 162.84 260.33 163.00 273.00
C 158.39 273.96 148.01 269.90 150.00 278.00
C 156.33 278.00 162.67 278.00 169.00 278.00
C 165.62 265.79 166.31 252.30 166.00 240.00 C 165.69 227.70 173.61 215.33 162.00 207.00
C 161.41 209.23 162.86 211.00 163.00 213.00 Z"/>
</g>
<g fill="None" fill-opacity="0.0" stroke="#785BD6" stroke-opacity="0.61" stroke-width="0.3"><path d="
M 444.00 210.00 
C 433.37 216.15 431.70 231.62 426.93 242.93 C 422.15 254.23 420.98 267.93 413.00 278.00
C 408.06 271.98 402.85 284.25 398.25 288.25 C 393.65 292.24 388.71 301.58 382.00 303.00
C 384.52 278.68 396.56 256.17 406.00 234.00
C 398.15 238.70 395.82 250.86 391.77 259.77 C 387.72 268.69 383.69 279.79 381.32 289.32 C 378.96 298.85 371.11 306.07 363.00 311.00
C 361.70 303.37 374.32 293.39 368.00 289.00
C 363.80 299.10 361.05 312.97 349.00 317.00
C 347.44 311.27 353.99 304.25 349.00 300.00
C 343.14 306.27 341.55 315.45 335.00 321.00
C 335.63 315.18 340.52 310.80 341.00 305.00
C 334.24 307.91 333.32 319.11 331.00 326.00
C 339.21 327.86 342.73 314.86 346.00 309.00
C 347.26 311.56 344.52 320.62 349.97 319.97 C 355.42 319.33 355.22 314.73 359.00 312.00
C 365.88 319.51 374.27 303.94 379.00 299.00
C 377.41 313.68 392.38 301.59 395.00 295.00
C 396.62 296.81 394.36 301.23 399.00 301.00
C 406.93 292.97 412.09 283.29 418.00 274.00
C 414.53 283.97 424.37 296.99 432.00 283.00
C 442.02 286.50 449.24 273.82 454.00 267.00
C 457.10 269.78 449.97 275.79 455.00 278.00
C 459.62 269.02 464.79 257.14 475.00 253.00
C 469.55 249.49 466.03 256.44 462.00 259.00
C 462.50 256.48 464.54 252.36 461.00 251.00
C 458.57 263.94 446.58 275.47 435.00 281.00
C 433.97 269.71 451.92 269.12 451.00 257.00
C 433.61 258.71 435.80 281.40 423.00 287.00
C 416.41 259.44 444.80 237.89 444.00 210.00
M 428.00 252.00 
C 428.21 241.38 435.79 229.90 439.00 219.00
C 439.20 229.70 431.69 241.26 428.00 252.00
M 440.00 269.00 
C 439.11 269.79 438.78 271.62 437.00 271.00
C 437.97 269.15 438.79 266.76 441.00 266.00
C 442.70 264.18 444.13 260.97 447.00 261.00
C 445.27 264.11 441.67 265.92 440.00 269.00
M 409.00 280.00 
C 406.88 285.81 404.71 292.43 399.00 296.00
C 400.72 290.01 404.64 284.32 409.00 280.00 Z"/>
</g>
<g fill="None" fill-opacity="0.0" stroke="#A086EB" stroke-opacity="0.67" stroke-width="0.3"><path d="
M 146.00 238.00 
C 146.01 229.24 145.98 227.46 146.00 218.00 C 146.01 208.54 139.91 215.30 142.00 222.00 C 144.09 228.70 137.91 237.24 146.00 238.00 Z"/>
</g>
<g fill="None" fill-opacity="0.0" stroke="#AC93DE" stroke-opacity="0.52" stroke-width="0.3"><path d="
M 163.00 236.00 
C 164.75 229.25 164.26 219.83 163.00 213.00
C 163.49 220.18 163.95 228.87 163.00 236.00 Z"/>
</g>
<g fill="None" fill-opacity="0.0" stroke="#000000" stroke-opacity="0.00" stroke-width="0.3"><path d="
M 428.00 252.00 
C 431.69 241.26 439.20 229.70 439.00 219.00
C 435.79 229.90 428.21 241.38 428.00 252.00 Z"/>
</g>
<g fill="None" fill-opacity="0.0" stroke="#A58BE5" stroke-opacity="0.74" stroke-width="0.3"><path d="
M 257.00 262.00 
C 263.27 261.75 261.65 247.65 261.00 243.00 C 260.35 238.35 263.67 223.44 260.08 220.94 C 256.50 218.43 256.57 234.35 257.00 239.00 C 257.43 243.65 256.67 256.59 257.00 262.00 Z"/>
</g>
<g fill="None" fill-opacity="0.0" stroke="#A284E8" stroke-opacity="0.82" stroke-width="0.3"><path d="
M 341.00 278.00 
C 340.68 268.06 339.24 256.78 339.00 247.00 C 338.76 237.22 342.52 225.23 334.00 220.00
C 336.65 227.79 335.70 234.39 336.00 243.00 C 336.30 251.61 335.37 258.89 336.00 268.00 C 336.63 277.11 321.11 268.65 323.00 278.00
C 329.00 278.00 335.00 278.00 341.00 278.00 Z"/>
</g>
<g fill="None" fill-opacity="0.0" stroke="#A687EF" stroke-opacity="0.74" stroke-width="0.3"><path d="
M 280.00 221.00 
C 272.69 221.76 276.70 233.54 276.00 240.00 C 275.30 246.46 276.21 255.37 276.00 262.00 C 275.78 268.63 271.04 271.92 265.02 273.02 C 259.00 274.13 252.47 274.38 247.00 271.00
C 249.85 281.61 278.00 285.53 280.00 271.00 C 282.00 256.47 278.50 236.07 280.00 221.00 Z"/>
</g>
<g fill="None" fill-opacity="0.0" stroke="#A487EF" stroke-opacity="0.73" stroke-width="0.3"><path d="
M 207.00 254.00 
C 207.70 243.75 209.52 227.38 200.00 222.00
C 203.80 229.84 201.27 239.35 202.00 248.00
C 195.33 248.00 188.67 248.00 182.00 248.00
C 184.09 252.12 178.88 262.01 182.77 265.21 C 186.66 268.42 186.52 254.32 186.00 252.00
C 193.82 251.01 200.19 253.08 207.00 254.00 Z"/>
</g>
<g fill="None" fill-opacity="0.0" stroke="#A396CB" stroke-opacity="0.38" stroke-width="0.3"><path d="
M 237.00 225.00 
C 237.79 223.89 240.23 223.92 241.00 225.00
C 240.37 223.54 238.77 221.79 237.00 222.00
C 236.81 222.95 237.24 224.06 237.00 225.00 Z"/>
</g>
<g fill="None" fill-opacity="0.0" stroke="#A487EB" stroke-opacity="0.78" stroke-width="0.3"><path d="
M 380.00 254.00 
C 378.55 243.67 385.31 228.57 374.00 223.00
C 375.83 230.97 374.69 239.65 375.00 248.00
C 368.33 248.00 361.67 248.00 355.00 248.00
C 357.09 252.12 351.88 262.01 355.77 265.21 C 359.66 268.42 359.52 254.32 359.00 252.00
C 366.82 251.01 373.19 253.08 380.00 254.00 Z"/>
</g>
<g fill="None" fill-opacity="0.0" stroke="#A58AED" stroke-opacity="0.67" stroke-width="0.3"><path d="
M 186.00 242.00 
C 186.90 238.76 186.20 222.32 182.78 224.78 C 179.36 227.23 181.04 243.17 186.00 242.00 Z"/>
</g>
<g fill="None" fill-opacity="0.0" stroke="#A68DEB" stroke-opacity="0.74" stroke-width="0.3"><path d="
M 221.00 232.00 
C 221.10 234.70 224.13 227.60 224.00 227.00
C 223.27 225.25 222.35 223.24 220.00 224.00
C 219.68 226.88 220.05 229.45 221.00 232.00 Z"/>
</g>
<g fill="None" fill-opacity="0.0" stroke="#A285EB" stroke-opacity="0.74" stroke-width="0.3"><path d="
M 237.00 225.00 
C 237.00 228.00 237.00 231.00 237.00 234.00
C 233.34 234.56 228.11 232.46 226.00 236.00
C 225.81 236.32 225.29 237.06 225.00 237.00
C 228.78 240.60 235.72 239.47 241.00 240.00
C 239.84 235.40 242.55 229.46 241.00 225.00
C 240.23 223.92 237.79 223.89 237.00 225.00 Z"/>
</g>
<g fill="None" fill-opacity="0.0" stroke="#9F87E0" stroke-opacity="0.65" stroke-width="0.3"><path d="
M 359.00 242.00 
C 359.95 238.76 359.14 222.32 355.78 224.78 C 352.42 227.23 353.96 244.02 359.00 242.00 Z"/>
</g>
<g fill="None" fill-opacity="0.0" stroke="#9B8EEB" stroke-opacity="0.38" stroke-width="0.3"><path d="
M 221.00 232.00 
C 221.60 233.61 222.99 236.61 225.00 237.00
C 225.29 237.06 225.81 236.32 226.00 236.00
C 225.73 233.94 224.77 228.92 224.00 227.00
C 224.13 227.60 221.10 234.70 221.00 232.00 Z"/>
</g>
<g fill="None" fill-opacity="0.0" stroke="#A17FF5" stroke-opacity="0.91" stroke-width="0.3"><path d="
M 296.00 229.00 
C 294.55 233.56 299.32 245.67 297.00 251.00 C 294.68 256.33 300.73 269.69 296.00 273.00
C 291.56 273.76 281.93 270.23 284.00 278.00
C 287.20 277.44 290.84 278.74 294.00 278.00
C 295.32 275.13 298.76 270.07 300.00 265.00
C 300.12 260.79 299.37 251.75 299.00 247.00 C 298.63 242.25 301.47 231.65 299.00 228.00
C 297.18 226.30 296.74 227.18 296.00 229.00 Z"/>
</g>
<g fill="None" fill-opacity="0.0" stroke="#A17DF9" stroke-opacity="0.91" stroke-width="0.3"><path d="
M 316.00 228.00 
C 314.61 230.28 318.23 238.73 317.00 243.00 C 315.77 247.27 317.67 255.34 317.00 260.00
C 318.16 258.78 318.69 257.79 319.00 256.00
C 319.63 252.29 319.48 245.61 319.00 242.00 C 318.52 238.39 320.92 230.82 319.00 228.00
C 317.97 227.02 317.02 226.50 316.00 228.00 Z"/>
</g>
<g fill="None" fill-opacity="0.0" stroke="#9E80EC" stroke-opacity="0.23" stroke-width="0.3"><path d="
M 300.00 265.00 
C 300.66 262.31 301.23 260.00 301.00 257.00
C 300.73 253.46 299.92 246.06 300.00 242.00 C 300.08 237.94 301.63 230.46 299.00 228.00
C 301.47 231.65 298.63 242.25 299.00 247.00 C 299.37 251.75 300.12 260.79 300.00 265.00 Z"/>
</g>
<g fill="None" fill-opacity="0.0" stroke="#9B81E2" stroke-opacity="0.75" stroke-width="0.3"><path d="
M 316.00 261.00 
C 316.26 260.75 316.75 260.26 317.00 260.00
C 317.67 255.34 315.77 247.27 317.00 243.00 C 318.23 238.73 314.61 230.28 316.00 228.00
C 313.85 231.17 316.46 241.02 316.00 245.00 C 315.54 248.98 314.78 257.19 316.00 261.00 Z"/>
</g>
<g fill="None" fill-opacity="0.0" stroke="#9C80E1" stroke-opacity="0.15" stroke-width="0.3"><path d="
M 319.00 256.00 
C 319.68 255.00 321.23 254.08 322.00 253.00
C 321.62 254.93 319.25 244.76 320.00 242.00 C 320.75 239.24 320.87 229.78 319.00 228.00
C 320.92 230.82 318.52 238.39 319.00 242.00 C 319.48 245.61 319.63 252.29 319.00 256.00 Z"/>
</g>
<g fill="None" fill-opacity="0.0" stroke="#9F82E4" stroke-opacity="0.71" stroke-width="0.3"><path d="
M 296.00 273.00 
C 300.73 269.69 294.68 256.33 297.00 251.00 C 299.32 245.67 294.55 233.56 296.00 229.00
C 293.43 235.28 297.34 244.21 296.00 251.00 C 294.66 257.79 297.00 266.08 296.00 273.00 Z"/>
</g>
<g fill="None" fill-opacity="0.0" stroke="#A688ED" stroke-opacity="0.78" stroke-width="0.3"><path d="
M 210.00 272.00 
C 212.88 279.95 223.53 279.92 230.78 279.78 C 238.03 279.64 246.24 272.73 242.32 265.68 C 238.41 258.62 244.71 248.23 235.00 245.00
C 236.79 252.08 241.56 263.87 235.08 270.08 C 228.60 276.29 217.59 273.59 210.00 272.00 Z"/>
</g>
<g fill="None" fill-opacity="0.0" stroke="#A299D9" stroke-opacity="0.38" stroke-width="0.3"><path d="
M 222.00 255.00 
C 221.57 250.26 216.57 248.25 213.00 246.00
C 213.94 250.28 218.70 252.63 222.00 255.00 Z"/>
</g>
<g fill="None" fill-opacity="0.0" stroke="#A184ED" stroke-opacity="0.73" stroke-width="0.3"><path d="
M 148.00 278.00 
C 144.65 268.39 147.59 256.40 144.00 247.00
C 139.41 252.77 143.28 264.80 142.00 273.00
C 137.39 273.96 127.01 269.90 129.00 278.00
C 135.33 278.00 141.67 278.00 148.00 278.00 Z"/>
</g>
<g fill="None" fill-opacity="0.0" stroke="#815DE3" stroke-opacity="0.72" stroke-width="0.3"><path d="
M 322.00 253.00 
C 321.23 254.08 319.68 255.00 319.00 256.00
C 318.69 257.79 318.16 258.78 317.00 260.00
C 316.75 260.26 316.26 260.75 316.00 261.00
C 311.99 264.55 310.63 273.54 304.00 273.00
C 304.30 283.98 295.97 293.09 291.00 302.00
C 294.38 294.44 294.13 281.83 301.00 278.00
C 299.25 270.15 304.70 264.27 305.00 257.00
C 304.34 256.52 301.45 257.63 301.00 257.00
C 301.23 260.00 300.66 262.31 300.00 265.00
C 298.76 270.07 295.32 275.13 294.00 278.00
C 294.14 282.29 291.58 289.04 289.93 293.93 C 288.27 298.81 287.42 308.60 282.00 302.00
C 281.55 304.54 282.50 307.02 285.00 308.00
C 280.36 318.74 279.17 326.98 271.25 336.25 C 263.32 345.52 258.27 352.89 258.00 366.00 C 257.74 379.11 274.94 381.62 282.92 373.92 C 290.89 366.22 299.16 362.56 305.70 353.70 C 312.23 344.83 317.79 336.75 322.08 327.08 C 326.36 317.40 331.65 301.77 321.00 295.00
C 322.00 293.84 323.04 293.38 324.00 292.00
C 324.77 290.89 325.34 288.81 326.00 288.00
C 320.75 293.15 314.09 294.58 307.00 295.00
C 312.50 290.11 313.65 279.77 321.00 278.00
C 320.46 270.42 324.13 265.75 327.07 259.07 C 330.02 252.40 328.56 243.73 322.00 253.00
M 321.00 266.00 
C 320.52 266.87 320.79 269.02 319.00 269.00
C 319.56 266.48 317.81 262.70 320.00 261.00
C 321.00 258.49 323.12 255.69 325.00 254.00
C 325.14 258.44 321.82 261.83 321.00 266.00
M 316.00 267.00 
C 316.35 270.15 316.46 274.30 312.00 273.00
C 313.76 271.22 314.17 268.46 316.00 267.00
M 314.00 278.00 
C 309.40 285.78 304.95 295.44 297.00 300.00
C 302.14 292.91 303.37 277.73 314.00 278.00
M 312.00 297.00 
C 305.55 303.06 298.13 308.62 291.00 314.00
C 294.36 306.19 303.75 299.47 312.00 297.00
M 264.00 354.00 
C 263.76 365.66 271.34 361.60 272.98 353.98 C 274.61 346.35 279.61 341.87 280.77 334.77 C 281.93 327.67 287.15 323.44 291.75 318.75 C 296.36 314.07 302.26 309.23 306.75 305.75 C 311.23 302.27 317.41 293.75 321.75 300.25 C 326.09 306.75 324.15 315.40 321.07 322.07 C 317.99 328.74 317.12 333.34 311.75 339.75 C 306.37 346.15 307.70 348.86 299.75 355.75 C 291.79 362.63 279.31 378.83 267.78 374.22 C 256.24 369.62 263.95 361.30 264.00 354.00
M 269.00 347.00 
C 267.76 349.04 267.35 351.95 265.00 353.00
C 265.40 350.89 266.38 348.34 268.00 347.00
C 269.35 344.48 269.64 340.20 273.00 340.00
C 270.87 342.26 271.85 345.11 269.00 347.00 Z"/>
</g>
<g fill="None" fill-opacity="0.0" stroke="#000000" stroke-opacity="0.00" stroke-width="0.3"><path d="
M 320.00 261.00 
C 319.67 262.84 321.01 265.06 321.00 266.00
C 321.82 261.83 325.14 258.44 325.00 254.00
C 323.12 255.69 321.00 258.49 320.00 261.00 Z"/>
</g>
<g fill="None" fill-opacity="0.0" stroke="#AB93DA" stroke-opacity="0.17" stroke-width="0.3"><path d="
M 201.00 264.00 
C 201.64 262.10 202.57 259.54 202.00 257.00
C 203.00 257.00 204.00 257.00 205.00 257.00
C 201.25 251.60 201.22 263.01 201.00 264.00 Z"/>
</g>
<g fill="None" fill-opacity="0.0" stroke="#A586F0" stroke-opacity="0.77" stroke-width="0.3"><path d="
M 345.00 271.00 
C 348.52 281.99 362.04 279.86 370.97 277.97 C 379.90 276.08 385.83 256.27 374.00 256.00
C 377.71 272.70 356.22 277.98 345.00 271.00 Z"/>
</g>
<g fill="None" fill-opacity="0.0" stroke="#A787EF" stroke-opacity="0.82" stroke-width="0.3"><path d="
M 201.00 264.00 
C 197.20 275.32 181.27 275.82 172.00 271.00
C 175.88 280.72 188.20 280.36 196.92 278.92 C 205.65 277.48 209.75 263.85 205.00 257.00
C 204.00 257.00 203.00 257.00 202.00 257.00
C 202.57 259.54 201.64 262.10 201.00 264.00 Z"/>
</g>
<g fill="None" fill-opacity="0.0" stroke="#9F8AE3" stroke-opacity="0.69" stroke-width="0.3"><path d="
M 220.00 265.00 
C 229.80 264.14 217.37 253.43 220.00 265.00 Z"/>
</g>
<g fill="None" fill-opacity="0.0" stroke="#9268F1" stroke-opacity="0.23" stroke-width="0.3"><path d="
M 321.00 266.00 
C 321.01 265.06 319.67 262.84 320.00 261.00
C 317.81 262.70 319.56 266.48 319.00 269.00
C 320.79 269.02 320.52 266.87 321.00 266.00 Z"/>
</g>
<g fill="None" fill-opacity="0.0" stroke="#1A1137" stroke-opacity="0.05" stroke-width="0.3"><path d="
M 441.00 266.00 
C 440.42 266.84 439.74 269.40 440.00 269.00
C 441.67 265.92 445.27 264.11 447.00 261.00
C 444.13 260.97 442.70 264.18 441.00 266.00 Z"/>
</g>
<g fill="None" fill-opacity="0.0" stroke="#7E60E9" stroke-opacity="0.35" stroke-width="0.3"><path d="
M 440.00 269.00 
C 439.74 269.40 440.42 266.84 441.00 266.00
C 438.79 266.76 437.97 269.15 437.00 271.00
C 438.78 271.62 439.11 269.79 440.00 269.00 Z"/>
</g>
<g fill="None" fill-opacity="0.0" stroke="#000000" stroke-opacity="0.00" stroke-width="0.3"><path d="
M 316.00 267.00 
C 314.17 268.46 313.76 271.22 312.00 273.00
C 316.46 274.30 316.35 270.15 316.00 267.00 Z"/>
</g>
<g fill="None" fill-opacity="0.0" stroke="#806FC9" stroke-opacity="0.50" stroke-width="0.3"><path d="
M 377.00 277.00 
C 375.88 275.88 372.70 278.05 374.32 279.66 C 375.94 281.27 378.21 278.21 377.00 277.00 Z"/>
</g>
<g fill="None" fill-opacity="0.0" stroke="#000000" stroke-opacity="0.00" stroke-width="0.3"><path d="
M 314.00 278.00 
C 303.37 277.73 302.14 292.91 297.00 300.00
C 304.95 295.44 309.40 285.78 314.00 278.00 Z"/>
</g>
<g fill="None" fill-opacity="0.0" stroke="#000000" stroke-opacity="0.00" stroke-width="0.3"><path d="
M 409.00 280.00 
C 404.64 284.32 400.72 290.01 399.00 296.00
C 404.71 292.43 406.88 285.81 409.00 280.00 Z"/>
</g>
<g fill="None" fill-opacity="0.0" stroke="#928CC7" stroke-opacity="0.43" stroke-width="0.3"><path d="
M 326.00 288.00 
C 325.34 288.81 324.77 290.89 324.00 292.00
C 328.01 288.74 332.70 286.00 336.00 282.00
C 332.36 283.16 329.28 285.88 326.00 288.00 Z"/>
</g>
<g fill="None" fill-opacity="0.0" stroke="#000000" stroke-opacity="0.00" stroke-width="0.3"><path d="
M 312.00 297.00 
C 303.75 299.47 294.36 306.19 291.00 314.00
C 298.13 308.62 305.55 303.06 312.00 297.00 Z"/>
</g>
<g fill="None" fill-opacity="0.0" stroke="#000000" stroke-opacity="0.00" stroke-width="0.3"><path d="
M 264.00 354.00 
C 263.95 361.30 256.24 369.62 267.78 374.22 C 279.31 378.83 291.79 362.63 299.75 355.75 C 307.70 348.86 306.37 346.15 311.75 339.75 C 317.12 333.34 317.99 328.74 321.07 322.07 C 324.15 315.40 326.09 306.75 321.75 300.25 C 317.41 293.75 311.23 302.27 306.75 305.75 C 302.26 309.23 296.36 314.07 291.75 318.75 C 287.15 323.44 281.93 327.67 280.77 334.77 C 279.61 341.87 274.61 346.35 272.98 353.98 C 271.34 361.60 263.76 365.66 264.00 354.00 Z"/>
</g>
<g fill="None" fill-opacity="0.0" stroke="#754ADA" stroke-opacity="0.39" stroke-width="0.3"><path d="
M 268.00 347.00 
C 268.28 346.75 269.00 347.00 269.00 347.00
C 271.85 345.11 270.87 342.26 273.00 340.00
C 269.64 340.20 269.35 344.48 268.00 347.00 Z"/>
</g>
<g fill="None" fill-opacity="0.0" stroke="#170B2B" stroke-opacity="0.06" stroke-width="0.3"><path d="
M 269.00 347.00 
C 269.00 347.00 268.28 346.75 268.00 347.00
C 266.38 348.34 265.40 350.89 265.00 353.00
C 267.35 351.95 267.76 349.04 269.00 347.00 Z"/>
</g>
<g fill="#000000" fill-opacity="0.00" stroke="None">
<path d="
M 0.00 500.00 
L 500.00 500.00
L 500.00 0.00
L 0.00 0.00
L 0.00 500.00
M 163.00 236.00 
C 163.95 228.87 163.49 220.18 163.00 213.00
C 162.86 211.00 161.41 209.23 162.00 207.00
C 173.61 215.33 165.69 227.70 166.00 240.00 C 166.31 252.30 165.62 265.79 169.00 278.00
C 162.67 278.00 156.33 278.00 150.00 278.00
C 148.01 269.90 158.39 273.96 163.00 273.00
C 162.84 260.33 156.40 247.36 163.00 236.00
M 444.00 210.00 
C 444.80 237.89 416.41 259.44 423.00 287.00
C 435.80 281.40 433.61 258.71 451.00 257.00
C 451.92 269.12 433.97 269.71 435.00 281.00
C 446.58 275.47 458.57 263.94 461.00 251.00
C 464.54 252.36 462.50 256.48 462.00 259.00
C 466.03 256.44 469.55 249.49 475.00 253.00
C 464.79 257.14 459.62 269.02 455.00 278.00
C 449.97 275.79 457.10 269.78 454.00 267.00
C 449.24 273.82 442.02 286.50 432.00 283.00
C 424.37 296.99 414.53 283.97 418.00 274.00
C 412.09 283.29 406.93 292.97 399.00 301.00
C 394.36 301.23 396.62 296.81 395.00 295.00
C 392.38 301.59 377.41 313.68 379.00 299.00
C 374.27 303.94 365.88 319.51 359.00 312.00
C 355.22 314.73 355.42 319.33 349.97 319.97 C 344.52 320.62 347.26 311.56 346.00 309.00
C 342.73 314.86 339.21 327.86 331.00 326.00
C 333.32 319.11 334.24 307.91 341.00 305.00
C 340.52 310.80 335.63 315.18 335.00 321.00
C 341.55 315.45 343.14 306.27 349.00 300.00
C 353.99 304.25 347.44 311.27 349.00 317.00
C 361.05 312.97 363.80 299.10 368.00 289.00
C 374.32 293.39 361.70 303.37 363.00 311.00
C 371.11 306.07 378.96 298.85 381.32 289.32 C 383.69 279.79 387.72 268.69 391.77 259.77 C 395.82 250.86 398.15 238.70 406.00 234.00
C 396.56 256.17 384.52 278.68 382.00 303.00
C 388.71 301.58 393.65 292.24 398.25 288.25 C 402.85 284.25 408.06 271.98 413.00 278.00
C 420.98 267.93 422.15 254.23 426.93 242.93 C 431.70 231.62 433.37 216.15 444.00 210.00
M 146.00 238.00 
C 137.91 237.24 144.09 228.70 142.00 222.00 C 139.91 215.30 146.01 208.54 146.00 218.00 C 145.98 227.46 146.01 229.24 146.00 238.00
M 257.00 262.00 
C 256.67 256.59 257.43 243.65 257.00 239.00 C 256.57 234.35 256.50 218.43 260.08 220.94 C 263.67 223.44 260.35 238.35 261.00 243.00 C 261.65 247.65 263.27 261.75 257.00 262.00
M 341.00 278.00 
C 335.00 278.00 329.00 278.00 323.00 278.00
C 321.11 268.65 336.63 277.11 336.00 268.00 C 335.37 258.89 336.30 251.61 336.00 243.00 C 335.70 234.39 336.65 227.79 334.00 220.00
C 342.52 225.23 338.76 237.22 339.00 247.00 C 339.24 256.78 340.68 268.06 341.00 278.00
M 280.00 221.00 
C 278.50 236.07 282.00 256.47 280.00 271.00 C 278.00 285.53 249.85 281.61 247.00 271.00
C 252.47 274.38 259.00 274.13 265.02 273.02 C 271.04 271.92 275.78 268.63 276.00 262.00 C 276.21 255.37 275.30 246.46 276.00 240.00 C 276.70 233.54 272.69 221.76 280.00 221.00
M 207.00 254.00 
C 200.19 253.08 193.82 251.01 186.00 252.00
C 186.52 254.32 186.66 268.42 182.77 265.21 C 178.88 262.01 184.09 252.12 182.00 248.00
C 188.67 248.00 195.33 248.00 202.00 248.00
C 201.27 239.35 203.80 229.84 200.00 222.00
C 209.52 227.38 207.70 243.75 207.00 254.00
M 241.00 225.00 
C 242.55 229.46 239.84 235.40 241.00 240.00
C 235.72 239.47 228.78 240.60 225.00 237.00
C 222.99 236.61 221.60 233.61 221.00 232.00
C 220.05 229.45 219.68 226.88 220.00 224.00
C 222.35 223.24 223.27 225.25 224.00 227.00
C 224.77 228.92 225.73 233.94 226.00 236.00
C 228.11 232.46 233.34 234.56 237.00 234.00
C 237.00 231.00 237.00 228.00 237.00 225.00
C 237.24 224.06 236.81 222.95 237.00 222.00
C 238.77 221.79 240.37 223.54 241.00 225.00
M 380.00 254.00 
C 373.19 253.08 366.82 251.01 359.00 252.00
C 359.52 254.32 359.66 268.42 355.77 265.21 C 351.88 262.01 357.09 252.12 355.00 248.00
C 361.67 248.00 368.33 248.00 375.00 248.00
C 374.69 239.65 375.83 230.97 374.00 223.00
C 385.31 228.57 378.55 243.67 380.00 254.00
M 186.00 242.00 
C 181.04 243.17 179.36 227.23 182.78 224.78 C 186.20 222.32 186.90 238.76 186.00 242.00
M 359.00 242.00 
C 353.96 244.02 352.42 227.23 355.78 224.78 C 359.14 222.32 359.95 238.76 359.00 242.00
M 299.00 228.00 
C 301.63 230.46 300.08 237.94 300.00 242.00 C 299.92 246.06 300.73 253.46 301.00 257.00
C 301.45 257.63 304.34 256.52 305.00 257.00
C 304.70 264.27 299.25 270.15 301.00 278.00
C 294.13 281.83 294.38 294.44 291.00 302.00
C 295.97 293.09 304.30 283.98 304.00 273.00
C 310.63 273.54 311.99 264.55 316.00 261.00
C 314.78 257.19 315.54 248.98 316.00 245.00 C 316.46 241.02 313.85 231.17 316.00 228.00
C 317.02 226.50 317.97 227.02 319.00 228.00
C 320.87 229.78 320.75 239.24 320.00 242.00 C 319.25 244.76 321.62 254.93 322.00 253.00
C 328.56 243.73 330.02 252.40 327.07 259.07 C 324.13 265.75 320.46 270.42 321.00 278.00
C 313.65 279.77 312.50 290.11 307.00 295.00
C 314.09 294.58 320.75 293.15 326.00 288.00
C 329.28 285.88 332.36 283.16 336.00 282.00
C 332.70 286.00 328.01 288.74 324.00 292.00
C 323.04 293.38 322.00 293.84 321.00 295.00
C 331.65 301.77 326.36 317.40 322.08 327.08 C 317.79 336.75 312.23 344.83 305.70 353.70 C 299.16 362.56 290.89 366.22 282.92 373.92 C 274.94 381.62 257.74 379.11 258.00 366.00 C 258.27 352.89 263.32 345.52 271.25 336.25 C 279.17 326.98 280.36 318.74 285.00 308.00
C 282.50 307.02 281.55 304.54 282.00 302.00
C 287.42 308.60 288.27 298.81 289.93 293.93 C 291.58 289.04 294.14 282.29 294.00 278.00
C 290.84 278.74 287.20 277.44 284.00 278.00
C 281.93 270.23 291.56 273.76 296.00 273.00
C 297.00 266.08 294.66 257.79 296.00 251.00 C 297.34 244.21 293.43 235.28 296.00 229.00
C 296.74 227.18 297.18 226.30 299.00 228.00
M 210.00 272.00 
C 217.59 273.59 228.60 276.29 235.08 270.08 C 241.56 263.87 236.79 252.08 235.00 245.00
C 244.71 248.23 238.41 258.62 242.32 265.68 C 246.24 272.73 238.03 279.64 230.78 279.78 C 223.53 279.92 212.88 279.95 210.00 272.00
M 222.00 255.00 
C 218.70 252.63 213.94 250.28 213.00 246.00
C 216.57 248.25 221.57 250.26 222.00 255.00
M 148.00 278.00 
C 141.67 278.00 135.33 278.00 129.00 278.00
C 127.01 269.90 137.39 273.96 142.00 273.00
C 143.28 264.80 139.41 252.77 144.00 247.00
C 147.59 256.40 144.65 268.39 148.00 278.00
M 205.00 257.00 
C 209.75 263.85 205.65 277.48 196.92 278.92 C 188.20 280.36 175.88 280.72 172.00 271.00
C 181.27 275.82 197.20 275.32 201.00 264.00
C 201.22 263.01 201.25 251.60 205.00 257.00
M 345.00 271.00 
C 356.22 277.98 377.71 272.70 374.00 256.00
C 385.83 256.27 379.90 276.08 370.97 277.97 C 362.04 279.86 348.52 281.99 345.00 271.00
M 220.00 265.00 
C 217.37 253.43 229.80 264.14 220.00 265.00
M 377.00 277.00 
C 378.21 278.21 375.94 281.27 374.32 279.66 C 372.70 278.05 375.88 275.88 377.00 277.00 Z"/>
</g>
<g fill="#A585ED" fill-opacity="0.82" stroke="None">
<path d="
M 163.00 213.00 
C 164.26 219.83 164.75 229.25 163.00 236.00
C 156.40 247.36 162.84 260.33 163.00 273.00
C 158.39 273.96 148.01 269.90 150.00 278.00
C 156.33 278.00 162.67 278.00 169.00 278.00
C 165.62 265.79 166.31 252.30 166.00 240.00 C 165.69 227.70 173.61 215.33 162.00 207.00
C 161.41 209.23 162.86 211.00 163.00 213.00 Z"/>
</g>
<g fill="#785BD6" fill-opacity="0.61" stroke="None">
<path d="
M 444.00 210.00 
C 433.37 216.15 431.70 231.62 426.93 242.93 C 422.15 254.23 420.98 267.93 413.00 278.00
C 408.06 271.98 402.85 284.25 398.25 288.25 C 393.65 292.24 388.71 301.58 382.00 303.00
C 384.52 278.68 396.56 256.17 406.00 234.00
C 398.15 238.70 395.82 250.86 391.77 259.77 C 387.72 268.69 383.69 279.79 381.32 289.32 C 378.96 298.85 371.11 306.07 363.00 311.00
C 361.70 303.37 374.32 293.39 368.00 289.00
C 363.80 299.10 361.05 312.97 349.00 317.00
C 347.44 311.27 353.99 304.25 349.00 300.00
C 343.14 306.27 341.55 315.45 335.00 321.00
C 335.63 315.18 340.52 310.80 341.00 305.00
C 334.24 307.91 333.32 319.11 331.00 326.00
C 339.21 327.86 342.73 314.86 346.00 309.00
C 347.26 311.56 344.52 320.62 349.97 319.97 C 355.42 319.33 355.22 314.73 359.00 312.00
C 365.88 319.51 374.27 303.94 379.00 299.00
C 377.41 313.68 392.38 301.59 395.00 295.00
C 396.62 296.81 394.36 301.23 399.00 301.00
C 406.93 292.97 412.09 283.29 418.00 274.00
C 414.53 283.97 424.37 296.99 432.00 283.00
C 442.02 286.50 449.24 273.82 454.00 267.00
C 457.10 269.78 449.97 275.79 455.00 278.00
C 459.62 269.02 464.79 257.14 475.00 253.00
C 469.55 249.49 466.03 256.44 462.00 259.00
C 462.50 256.48 464.54 252.36 461.00 251.00
C 458.57 263.94 446.58 275.47 435.00 281.00
C 433.97 269.71 451.92 269.12 451.00 257.00
C 433.61 258.71 435.80 281.40 423.00 287.00
C 416.41 259.44 444.80 237.89 444.00 210.00
M 428.00 252.00 
C 428.21 241.38 435.79 229.90 439.00 219.00
C 439.20 229.70 431.69 241.26 428.00 252.00
M 440.00 269.00 
C 439.11 269.79 438.78 271.62 437.00 271.00
C 437.97 269.15 438.79 266.76 441.00 266.00
C 442.70 264.18 444.13 260.97 447.00 261.00
C 445.27 264.11 441.67 265.92 440.00 269.00
M 409.00 280.00 
C 406.88 285.81 404.71 292.43 399.00 296.00
C 400.72 290.01 404.64 284.32 409.00 280.00 Z"/>
</g>
<g fill="#A086EB" fill-opacity="0.67" stroke="None">
<path d="
M 146.00 238.00 
C 146.01 229.24 145.98 227.46 146.00 218.00 C 146.01 208.54 139.91 215.30 142.00 222.00 C 144.09 228.70 137.91 237.24 146.00 238.00 Z"/>
</g>
<g fill="#AC93DE" fill-opacity="0.52" stroke="None">
<path d="
M 163.00 236.00 
C 164.75 229.25 164.26 219.83 163.00 213.00
C 163.49 220.18 163.95 228.87 163.00 236.00 Z"/>
</g>
<g fill="#000000" fill-opacity="0.00" stroke="None">
<path d="
M 428.00 252.00 
C 431.69 241.26 439.20 229.70 439.00 219.00
C 435.79 229.90 428.21 241.38 428.00 252.00 Z"/>
</g>
<g fill="#A58BE5" fill-opacity="0.74" stroke="None">
<path d="
M 257.00 262.00 
C 263.27 261.75 261.65 247.65 261.00 243.00 C 260.35 238.35 263.67 223.44 260.08 220.94 C 256.50 218.43 256.57 234.35 257.00 239.00 C 257.43 243.65 256.67 256.59 257.00 262.00 Z"/>
</g>
<g fill="#A284E8" fill-opacity="0.82" stroke="None">
<path d="
M 341.00 278.00 
C 340.68 268.06 339.24 256.78 339.00 247.00 C 338.76 237.22 342.52 225.23 334.00 220.00
C 336.65 227.79 335.70 234.39 336.00 243.00 C 336.30 251.61 335.37 258.89 336.00 268.00 C 336.63 277.11 321.11 268.65 323.00 278.00
C 329.00 278.00 335.00 278.00 341.00 278.00 Z"/>
</g>
<g fill="#A687EF" fill-opacity="0.74" stroke="None">
<path d="
M 280.00 221.00 
C 272.69 221.76 276.70 233.54 276.00 240.00 C 275.30 246.46 276.21 255.37 276.00 262.00 C 275.78 268.63 271.04 271.92 265.02 273.02 C 259.00 274.13 252.47 274.38 247.00 271.00
C 249.85 281.61 278.00 285.53 280.00 271.00 C 282.00 256.47 278.50 236.07 280.00 221.00 Z"/>
</g>
<g fill="#A487EF" fill-opacity="0.73" stroke="None">
<path d="
M 207.00 254.00 
C 207.70 243.75 209.52 227.38 200.00 222.00
C 203.80 229.84 201.27 239.35 202.00 248.00
C 195.33 248.00 188.67 248.00 182.00 248.00
C 184.09 252.12 178.88 262.01 182.77 265.21 C 186.66 268.42 186.52 254.32 186.00 252.00
C 193.82 251.01 200.19 253.08 207.00 254.00 Z"/>
</g>
<g fill="#A396CB" fill-opacity="0.38" stroke="None">
<path d="
M 237.00 225.00 
C 237.79 223.89 240.23 223.92 241.00 225.00
C 240.37 223.54 238.77 221.79 237.00 222.00
C 236.81 222.95 237.24 224.06 237.00 225.00 Z"/>
</g>
<g fill="#A487EB" fill-opacity="0.78" stroke="None">
<path d="
M 380.00 254.00 
C 378.55 243.67 385.31 228.57 374.00 223.00
C 375.83 230.97 374.69 239.65 375.00 248.00
C 368.33 248.00 361.67 248.00 355.00 248.00
C 357.09 252.12 351.88 262.01 355.77 265.21 C 359.66 268.42 359.52 254.32 359.00 252.00
C 366.82 251.01 373.19 253.08 380.00 254.00 Z"/>
</g>
<g fill="#A58AED" fill-opacity="0.67" stroke="None">
<path d="
M 186.00 242.00 
C 186.90 238.76 186.20 222.32 182.78 224.78 C 179.36 227.23 181.04 243.17 186.00 242.00 Z"/>
</g>
<g fill="#A68DEB" fill-opacity="0.74" stroke="None">
<path d="
M 221.00 232.00 
C 221.10 234.70 224.13 227.60 224.00 227.00
C 223.27 225.25 222.35 223.24 220.00 224.00
C 219.68 226.88 220.05 229.45 221.00 232.00 Z"/>
</g>
<g fill="#A285EB" fill-opacity="0.74" stroke="None">
<path d="
M 237.00 225.00 
C 237.00 228.00 237.00 231.00 237.00 234.00
C 233.34 234.56 228.11 232.46 226.00 236.00
C 225.81 236.32 225.29 237.06 225.00 237.00
C 228.78 240.60 235.72 239.47 241.00 240.00
C 239.84 235.40 242.55 229.46 241.00 225.00
C 240.23 223.92 237.79 223.89 237.00 225.00 Z"/>
</g>
<g fill="#9F87E0" fill-opacity="0.65" stroke="None">
<path d="
M 359.00 242.00 
C 359.95 238.76 359.14 222.32 355.78 224.78 C 352.42 227.23 353.96 244.02 359.00 242.00 Z"/>
</g>
<g fill="#9B8EEB" fill-opacity="0.38" stroke="None">
<path d="
M 221.00 232.00 
C 221.60 233.61 222.99 236.61 225.00 237.00
C 225.29 237.06 225.81 236.32 226.00 236.00
C 225.73 233.94 224.77 228.92 224.00 227.00
C 224.13 227.60 221.10 234.70 221.00 232.00 Z"/>
</g>
<g fill="#A17FF5" fill-opacity="0.91" stroke="None">
<path d="
M 296.00 229.00 
C 294.55 233.56 299.32 245.67 297.00 251.00 C 294.68 256.33 300.73 269.69 296.00 273.00
C 291.56 273.76 281.93 270.23 284.00 278.00
C 287.20 277.44 290.84 278.74 294.00 278.00
C 295.32 275.13 298.76 270.07 300.00 265.00
C 300.12 260.79 299.37 251.75 299.00 247.00 C 298.63 242.25 301.47 231.65 299.00 228.00
C 297.18 226.30 296.74 227.18 296.00 229.00 Z"/>
</g>
<g fill="#A17DF9" fill-opacity="0.91" stroke="None">
<path d="
M 316.00 228.00 
C 314.61 230.28 318.23 238.73 317.00 243.00 C 315.77 247.27 317.67 255.34 317.00 260.00
C 318.16 258.78 318.69 257.79 319.00 256.00
C 319.63 252.29 319.48 245.61 319.00 242.00 C 318.52 238.39 320.92 230.82 319.00 228.00
C 317.97 227.02 317.02 226.50 316.00 228.00 Z"/>
</g>
<g fill="#9E80EC" fill-opacity="0.23" stroke="None">
<path d="
M 300.00 265.00 
C 300.66 262.31 301.23 260.00 301.00 257.00
C 300.73 253.46 299.92 246.06 300.00 242.00 C 300.08 237.94 301.63 230.46 299.00 228.00
C 301.47 231.65 298.63 242.25 299.00 247.00 C 299.37 251.75 300.12 260.79 300.00 265.00 Z"/>
</g>
<g fill="#9B81E2" fill-opacity="0.75" stroke="None">
<path d="
M 316.00 261.00 
C 316.26 260.75 316.75 260.26 317.00 260.00
C 317.67 255.34 315.77 247.27 317.00 243.00 C 318.23 238.73 314.61 230.28 316.00 228.00
C 313.85 231.17 316.46 241.02 316.00 245.00 C 315.54 248.98 314.78 257.19 316.00 261.00 Z"/>
</g>
<g fill="#9C80E1" fill-opacity="0.15" stroke="None">
<path d="
M 319.00 256.00 
C 319.68 255.00 321.23 254.08 322.00 253.00
C 321.62 254.93 319.25 244.76 320.00 242.00 C 320.75 239.24 320.87 229.78 319.00 228.00
C 320.92 230.82 318.52 238.39 319.00 242.00 C 319.48 245.61 319.63 252.29 319.00 256.00 Z"/>
</g>
<g fill="#9F82E4" fill-opacity="0.71" stroke="None">
<path d="
M 296.00 273.00 
C 300.73 269.69 294.68 256.33 297.00 251.00 C 299.32 245.67 294.55 233.56 296.00 229.00
C 293.43 235.28 297.34 244.21 296.00 251.00 C 294.66 257.79 297.00 266.08 296.00 273.00 Z"/>
</g>
<g fill="#A688ED" fill-opacity="0.78" stroke="None">
<path d="
M 210.00 272.00 
C 212.88 279.95 223.53 279.92 230.78 279.78 C 238.03 279.64 246.24 272.73 242.32 265.68 C 238.41 258.62 244.71 248.23 235.00 245.00
C 236.79 252.08 241.56 263.87 235.08 270.08 C 228.60 276.29 217.59 273.59 210.00 272.00 Z"/>
</g>
<g fill="#A299D9" fill-opacity="0.38" stroke="None">
<path d="
M 222.00 255.00 
C 221.57 250.26 216.57 248.25 213.00 246.00
C 213.94 250.28 218.70 252.63 222.00 255.00 Z"/>
</g>
<g fill="#A184ED" fill-opacity="0.73" stroke="None">
<path d="
M 148.00 278.00 
C 144.65 268.39 147.59 256.40 144.00 247.00
C 139.41 252.77 143.28 264.80 142.00 273.00
C 137.39 273.96 127.01 269.90 129.00 278.00
C 135.33 278.00 141.67 278.00 148.00 278.00 Z"/>
</g>
<g fill="#815DE3" fill-opacity="0.72" stroke="None">
<path d="
M 322.00 253.00 
C 321.23 254.08 319.68 255.00 319.00 256.00
C 318.69 257.79 318.16 258.78 317.00 260.00
C 316.75 260.26 316.26 260.75 316.00 261.00
C 311.99 264.55 310.63 273.54 304.00 273.00
C 304.30 283.98 295.97 293.09 291.00 302.00
C 294.38 294.44 294.13 281.83 301.00 278.00
C 299.25 270.15 304.70 264.27 305.00 257.00
C 304.34 256.52 301.45 257.63 301.00 257.00
C 301.23 260.00 300.66 262.31 300.00 265.00
C 298.76 270.07 295.32 275.13 294.00 278.00
C 294.14 282.29 291.58 289.04 289.93 293.93 C 288.27 298.81 287.42 308.60 282.00 302.00
C 281.55 304.54 282.50 307.02 285.00 308.00
C 280.36 318.74 279.17 326.98 271.25 336.25 C 263.32 345.52 258.27 352.89 258.00 366.00 C 257.74 379.11 274.94 381.62 282.92 373.92 C 290.89 366.22 299.16 362.56 305.70 353.70 C 312.23 344.83 317.79 336.75 322.08 327.08 C 326.36 317.40 331.65 301.77 321.00 295.00
C 322.00 293.84 323.04 293.38 324.00 292.00
C 324.77 290.89 325.34 288.81 326.00 288.00
C 320.75 293.15 314.09 294.58 307.00 295.00
C 312.50 290.11 313.65 279.77 321.00 278.00
C 320.46 270.42 324.13 265.75 327.07 259.07 C 330.02 252.40 328.56 243.73 322.00 253.00
M 321.00 266.00 
C 320.52 266.87 320.79 269.02 319.00 269.00
C 319.56 266.48 317.81 262.70 320.00 261.00
C 321.00 258.49 323.12 255.69 325.00 254.00
C 325.14 258.44 321.82 261.83 321.00 266.00
M 316.00 267.00 
C 316.35 270.15 316.46 274.30 312.00 273.00
C 313.76 271.22 314.17 268.46 316.00 267.00
M 314.00 278.00 
C 309.40 285.78 304.95 295.44 297.00 300.00
C 302.14 292.91 303.37 277.73 314.00 278.00
M 312.00 297.00 
C 305.55 303.06 298.13 308.62 291.00 314.00
C 294.36 306.19 303.75 299.47 312.00 297.00
M 264.00 354.00 
C 263.76 365.66 271.34 361.60 272.98 353.98 C 274.61 346.35 279.61 341.87 280.77 334.77 C 281.93 327.67 287.15 323.44 291.75 318.75 C 296.36 314.07 302.26 309.23 306.75 305.75 C 311.23 302.27 317.41 293.75 321.75 300.25 C 326.09 306.75 324.15 315.40 321.07 322.07 C 317.99 328.74 317.12 333.34 311.75 339.75 C 306.37 346.15 307.70 348.86 299.75 355.75 C 291.79 362.63 279.31 378.83 267.78 374.22 C 256.24 369.62 263.95 361.30 264.00 354.00
M 269.00 347.00 
C 267.76 349.04 267.35 351.95 265.00 353.00
C 265.40 350.89 266.38 348.34 268.00 347.00
C 269.35 344.48 269.64 340.20 273.00 340.00
C 270.87 342.26 271.85 345.11 269.00 347.00 Z"/>
</g>
<g fill="#000000" fill-opacity="0.00" stroke="None">
<path d="
M 320.00 261.00 
C 319.67 262.84 321.01 265.06 321.00 266.00
C 321.82 261.83 325.14 258.44 325.00 254.00
C 323.12 255.69 321.00 258.49 320.00 261.00 Z"/>
</g>
<g fill="#AB93DA" fill-opacity="0.17" stroke="None">
<path d="
M 201.00 264.00 
C 201.64 262.10 202.57 259.54 202.00 257.00
C 203.00 257.00 204.00 257.00 205.00 257.00
C 201.25 251.60 201.22 263.01 201.00 264.00 Z"/>
</g>
<g fill="#A586F0" fill-opacity="0.77" stroke="None">
<path d="
M 345.00 271.00 
C 348.52 281.99 362.04 279.86 370.97 277.97 C 379.90 276.08 385.83 256.27 374.00 256.00
C 377.71 272.70 356.22 277.98 345.00 271.00 Z"/>
</g>
<g fill="#A787EF" fill-opacity="0.82" stroke="None">
<path d="
M 201.00 264.00 
C 197.20 275.32 181.27 275.82 172.00 271.00
C 175.88 280.72 188.20 280.36 196.92 278.92 C 205.65 277.48 209.75 263.85 205.00 257.00
C 204.00 257.00 203.00 257.00 202.00 257.00
C 202.57 259.54 201.64 262.10 201.00 264.00 Z"/>
</g>
<g fill="#9F8AE3" fill-opacity="0.69" stroke="None">
<path d="
M 220.00 265.00 
C 229.80 264.14 217.37 253.43 220.00 265.00 Z"/>
</g>
<g fill="#9268F1" fill-opacity="0.23" stroke="None">
<path d="
M 321.00 266.00 
C 321.01 265.06 319.67 262.84 320.00 261.00
C 317.81 262.70 319.56 266.48 319.00 269.00
C 320.79 269.02 320.52 266.87 321.00 266.00 Z"/>
</g>
<g fill="#1A1137" fill-opacity="0.05" stroke="None">
<path d="
M 441.00 266.00 
C 440.42 266.84 439.74 269.40 440.00 269.00
C 441.67 265.92 445.27 264.11 447.00 261.00
C 444.13 260.97 442.70 264.18 441.00 266.00 Z"/>
</g>
<g fill="#7E60E9" fill-opacity="0.35" stroke="None">
<path d="
M 440.00 269.00 
C 439.74 269.40 440.42 266.84 441.00 266.00
C 438.79 266.76 437.97 269.15 437.00 271.00
C 438.78 271.62 439.11 269.79 440.00 269.00 Z"/>
</g>
<g fill="#000000" fill-opacity="0.00" stroke="None">
<path d="
M 316.00 267.00 
C 314.17 268.46 313.76 271.22 312.00 273.00
C 316.46 274.30 316.35 270.15 316.00 267.00 Z"/>
</g>
<g fill="#806FC9" fill-opacity="0.50" stroke="None">
<path d="
M 377.00 277.00 
C 375.88 275.88 372.70 278.05 374.32 279.66 C 375.94 281.27 378.21 278.21 377.00 277.00 Z"/>
</g>
<g fill="#000000" fill-opacity="0.00" stroke="None">
<path d="
M 314.00 278.00 
C 303.37 277.73 302.14 292.91 297.00 300.00
C 304.95 295.44 309.40 285.78 314.00 278.00 Z"/>
</g>
<g fill="#000000" fill-opacity="0.00" stroke="None">
<path d="
M 409.00 280.00 
C 404.64 284.32 400.72 290.01 399.00 296.00
C 404.71 292.43 406.88 285.81 409.00 280.00 Z"/>
</g>
<g fill="#928CC7" fill-opacity="0.43" stroke="None">
<path d="
M 326.00 288.00 
C 325.34 288.81 324.77 290.89 324.00 292.00
C 328.01 288.74 332.70 286.00 336.00 282.00
C 332.36 283.16 329.28 285.88 326.00 288.00 Z"/>
</g>
<g fill="#000000" fill-opacity="0.00" stroke="None">
<path d="
M 312.00 297.00 
C 303.75 299.47 294.36 306.19 291.00 314.00
C 298.13 308.62 305.55 303.06 312.00 297.00 Z"/>
</g>
<g fill="#000000" fill-opacity="0.00" stroke="None">
<path d="
M 264.00 354.00 
C 263.95 361.30 256.24 369.62 267.78 374.22 C 279.31 378.83 291.79 362.63 299.75 355.75 C 307.70 348.86 306.37 346.15 311.75 339.75 C 317.12 333.34 317.99 328.74 321.07 322.07 C 324.15 315.40 326.09 306.75 321.75 300.25 C 317.41 293.75 311.23 302.27 306.75 305.75 C 302.26 309.23 296.36 314.07 291.75 318.75 C 287.15 323.44 281.93 327.67 280.77 334.77 C 279.61 341.87 274.61 346.35 272.98 353.98 C 271.34 361.60 263.76 365.66 264.00 354.00 Z"/>
</g>
<g fill="#754ADA" fill-opacity="0.39" stroke="None">
<path d="
M 268.00 347.00 
C 268.28 346.75 269.00 347.00 269.00 347.00
C 271.85 345.11 270.87 342.26 273.00 340.00
C 269.64 340.20 269.35 344.48 268.00 347.00 Z"/>
</g>
<g fill="#170B2B" fill-opacity="0.06" stroke="None">
<path d="
M 269.00 347.00 
C 269.00 347.00 268.28 346.75 268.00 347.00
C 266.38 348.34 265.40 350.89 265.00 353.00
C 267.35 351.95 267.76 349.04 269.00 347.00 Z"/>
</g>
</svg>